<svg id="Capa_1" data-name="Capa 1" xmlns="http://www.w3.org/2000/svg" xmlns:xlink="http://www.w3.org/1999/xlink" viewBox="0 0 28.35 28.35"><defs><style>.cls-1{fill:none;}.cls-2{opacity:0.4;}.cls-3{clip-path:url(#clip-path);}</style><clipPath id="clip-path"><rect class="cls-1" x="3.68" y="4.17" width="20.98" height="20"/></clipPath></defs><g id="fish" class="cls-2"><path id="Clip_2-21" data-name="Clip 2-21" class="cls-1" d="M3.68,4.17h21v20h-21Z"/><g class="cls-3"><g id="fish-2"><path id="Fill_1-11" data-name="Fill 1-11" d="M8.77,24.17h0L3.68,19.26l.45-.44a3.67,3.67,0,0,1,2.55-1,3.6,3.6,0,0,1,1.48.3,14.26,14.26,0,0,1,1.09-4.59,15,15,0,0,1,2.14-3.58L9.22,7.84l.45-.43a3.68,3.68,0,0,1,4.73-.3,15.77,15.77,0,0,1,9.21-2.94h1v.6a14.26,14.26,0,0,1-1.13,5.73,14.2,14.2,0,0,1-2,3.42,3.38,3.38,0,0,1-.19,4.71l-.45.44-2.35-2.26a15.66,15.66,0,0,1-3.59,2,15.72,15.72,0,0,1-5,1.06,3.41,3.41,0,0,1-.74,3.87ZM6.68,19a2.44,2.44,0,0,0-1.12.28l3.15,3a2.2,2.2,0,0,0-.39-2.66A2.34,2.34,0,0,0,6.68,19ZM16.2,7.43a14,14,0,0,0-2.54,1.91,13.4,13.4,0,0,0-4.25,9.3,14.39,14.39,0,0,0,11.74-6.35,8.51,8.51,0,0,1-3-1.84A8.07,8.07,0,0,1,16.2,7.43Zm4.47,7.49c-.22.23-.43.45-.65.65s-.32.3-.51.46l1.29,1.25A2.15,2.15,0,0,0,20.67,14.92Zm2.7-9.5a14.32,14.32,0,0,0-6,1.4,6.74,6.74,0,0,0,1.73,2.75,7.08,7.08,0,0,0,2.73,1.64,13,13,0,0,0,1.57-5.8ZM12.21,7.63a2.32,2.32,0,0,0-1.12.27L12.22,9c.2-.2.37-.38.54-.54l.6-.54A2.42,2.42,0,0,0,12.21,7.63Z"/></g></g></g></svg>