<svg id="Capa_1" data-name="Capa 1" xmlns="http://www.w3.org/2000/svg" xmlns:xlink="http://www.w3.org/1999/xlink" viewBox="0 0 28.35 28.35"><defs><style>.cls-1{fill:none;}.cls-2{opacity:0.4;}.cls-3{clip-path:url(#clip-path);}</style><clipPath id="clip-path"><rect class="cls-1" x="3.68" y="4.18" width="20.98" height="19.99"/></clipPath></defs><g id="sesame" class="cls-2"><path id="Clip_2-15" data-name="Clip 2-15" class="cls-1" d="M3.68,4.18h21v20h-21Z"/><g class="cls-3"><g id="sesame-2"><path id="Fill_1-5" data-name="Fill 1-5" d="M14.17,24.17a4.48,4.48,0,0,1-4.39-4.54c0-2.37,1.4-4.55,4-6.32l.35-.23.35.23c2.65,1.77,4,4,4,6.32A4.47,4.47,0,0,1,14.17,24.17Zm0-9.49c-1.41,1-3.09,2.7-3.09,4.95a3.1,3.1,0,1,0,6.19,0C17.27,17.38,15.58,15.7,14.17,14.68Z"/><path id="Fill_3" data-name="Fill 3" d="M19.54,13.43h0a9.42,9.42,0,0,1-4.39-1.24l-.37-.2,0-.43C15,8.31,16.09,6,18.08,4.79a4.23,4.23,0,0,1,2.19-.61,4.4,4.4,0,0,1,3.81,2.27,4.63,4.63,0,0,1-1.61,6.2A5.69,5.69,0,0,1,19.54,13.43Zm.73-7.91A3,3,0,0,0,18.72,6c-1.88,1.13-2.45,3.47-2.6,5.24a7.88,7.88,0,0,0,3.42.9,4.35,4.35,0,0,0,2.28-.6A3.25,3.25,0,0,0,23,7.12,3.09,3.09,0,0,0,20.27,5.52Z"/><path id="Fill_4-2" data-name="Fill 4-2" d="M8.81,13.43a5.69,5.69,0,0,1-2.93-.78,4.63,4.63,0,0,1-1.61-6.2A4.39,4.39,0,0,1,8.08,4.18a4.23,4.23,0,0,1,2.19.61c2,1.18,3.12,3.52,3.28,6.77l0,.43-.38.2A9.38,9.38,0,0,1,8.81,13.43ZM8.08,5.52a3.1,3.1,0,0,0-2.69,1.6,3.27,3.27,0,0,0,1.14,4.37,4.44,4.44,0,0,0,2.28.6,7.94,7.94,0,0,0,3.41-.9c-.14-1.77-.71-4.11-2.6-5.24A3,3,0,0,0,8.08,5.52Z"/></g></g></g></svg>