<svg id="Capa_1" data-name="Capa 1" xmlns="http://www.w3.org/2000/svg" xmlns:xlink="http://www.w3.org/1999/xlink" viewBox="0 0 28.35 28.35"><defs><style>.cls-1{fill:none;}.cls-2{opacity:0.4;}.cls-3{clip-path:url(#clip-path);}</style><clipPath id="clip-path"><rect class="cls-1" x="2.83" y="4.22" width="20.65" height="19.9"/></clipPath></defs><g id="soybean" class="cls-2"><path id="Fill_1" data-name="Fill 1" d="M17.74,12.32a2.64,2.64,0,0,1-1.88-.75A2.49,2.49,0,0,1,15.76,8l.1-.09a2.73,2.73,0,0,1,3.76,0,2.5,2.5,0,0,1,.09,3.53l-.09.09A2.65,2.65,0,0,1,17.74,12.32Zm0-3.9a1.41,1.41,0,0,0-1,.39,1.31,1.31,0,0,0-.05,1.84l.05,0a1.43,1.43,0,0,0,2,0,1.3,1.3,0,0,0,0-1.84l0,0a1.39,1.39,0,0,0-1-.38Z"/><g id="Group_5" data-name="Group 5"><path id="Clip_3-2" data-name="Clip 3-2" class="cls-1" d="M2.83,4.22H23.48v19.9H2.83Z"/><g class="cls-3"><g id="Group_5-2" data-name="Group 5-2"><path id="Fill_2" data-name="Fill 2" d="M13.16,16.74A2.75,2.75,0,0,1,11.27,16a2.51,2.51,0,0,1-.09-3.54l.09-.09a2.74,2.74,0,0,1,3.77,0,2.5,2.5,0,0,1,.09,3.53L15,16A2.74,2.74,0,0,1,13.16,16.74Zm0-3.9a1.33,1.33,0,0,0-1,.39,1.29,1.29,0,0,0,0,1.83l0,0a1.41,1.41,0,0,0,2,0,1.29,1.29,0,0,0,0-1.84l0,0a1.4,1.4,0,0,0-1-.39Z"/><path id="Fill_4" data-name="Fill 4" d="M7.3,24.12a7.25,7.25,0,0,1-3.36-.82l-.17-.09-.09-.15a6.6,6.6,0,0,1,1.2-8,7.25,7.25,0,0,1,2.86-1.67,6.7,6.7,0,0,1,1.73-2.74A7.14,7.14,0,0,1,12.32,9a6.7,6.7,0,0,1,1.73-2.74,7.09,7.09,0,0,1,5-2,7.17,7.17,0,0,1,3.36.83l.16.08.09.16a6.59,6.59,0,0,1-1.2,8A7.1,7.1,0,0,1,18.58,15a6.81,6.81,0,0,1-1.73,2.74A7,7,0,0,1,14,19.39a6.76,6.76,0,0,1-1.74,2.75A7.1,7.1,0,0,1,7.3,24.12ZM19,5.45A5.86,5.86,0,0,0,15,7.08a5.47,5.47,0,0,0-1.5,2.52l-.09.35L13,10a5.9,5.9,0,0,0-2.62,1.45A5.47,5.47,0,0,0,8.87,14l-.09.36-.37.09A5.79,5.79,0,0,0,5.79,15.9a5.45,5.45,0,0,0-1.07,6.4,5.91,5.91,0,0,0,6.64-1,5.51,5.51,0,0,0,1.5-2.53l.09-.35.37-.09a5.72,5.72,0,0,0,2.62-1.45,5.47,5.47,0,0,0,1.5-2.52l.1-.35.36-.09a5.76,5.76,0,0,0,2.62-1.45A5.45,5.45,0,0,0,21.6,6,6.09,6.09,0,0,0,19,5.45Z"/></g></g></g><path id="Fill_6" data-name="Fill 6" d="M8.58,21.15a2.75,2.75,0,0,1-1.89-.75,2.51,2.51,0,0,1-.09-3.54l.09-.09a2.74,2.74,0,0,1,3.77,0,2.51,2.51,0,0,1,.09,3.54l-.09.09A2.74,2.74,0,0,1,8.58,21.15Zm0-3.9a1.41,1.41,0,0,0-1,.39,1.3,1.3,0,0,0,0,1.84l0,.05a1.41,1.41,0,0,0,2,0,1.29,1.29,0,0,0,0-1.84.12.12,0,0,0,0-.05,1.4,1.4,0,0,0-1-.39Z"/></g></svg>