<svg id="Capa_1" data-name="Capa 1" xmlns="http://www.w3.org/2000/svg" xmlns:xlink="http://www.w3.org/1999/xlink" viewBox="0 0 28.35 28.35"><defs><style>.cls-1{fill:none;}.cls-2{opacity:0.4;}.cls-3{clip-path:url(#clip-path);}</style><clipPath id="clip-path"><rect class="cls-1" x="3.68" y="4.2" width="20.98" height="19.95"/></clipPath></defs><g id="lupin" class="cls-2"><path id="Clip_2-18" data-name="Clip 2-18" class="cls-1" d="M3.68,4.2h21v20h-21Z"/><g class="cls-3"><g id="lupin-2"><path id="Fill_1-8" data-name="Fill 1-8" d="M13.14,24.15H10.6a6.78,6.78,0,0,1-6.92-6.58,6.42,6.42,0,0,1,1.53-4.13A7.09,7.09,0,0,1,9,11.15a6.26,6.26,0,0,1,.32-2.39,6.46,6.46,0,0,1,1.7-2.64,7.18,7.18,0,0,1,9.79,0l1.79,1.7a6.35,6.35,0,0,1,.33,9q-.16.18-.33.33A7,7,0,0,1,20,18.71,6.84,6.84,0,0,1,13.14,24.15ZM8.07,12.8A5.3,5.3,0,0,0,5,17.57a5.5,5.5,0,0,0,5.63,5.34h2.53a5.49,5.49,0,0,0,5.62-5.34,5.36,5.36,0,0,0-3.2-4.83,4.94,4.94,0,0,1-7.49.06ZM10.6,11h2.54A7.13,7.13,0,0,1,18,12.85a6.36,6.36,0,0,1,2.1,4.51,5.79,5.79,0,0,0,1.66-1.1,5.14,5.14,0,0,0,1.33-5.56q-.3,0-.6,0A4.84,4.84,0,0,1,19.08,9.4a4.37,4.37,0,0,1-1.37-3.7A5.87,5.87,0,0,0,16,5.43,5.73,5.73,0,0,0,12,7a5.09,5.09,0,0,0-1.64,4Zm0,1.24a6.21,6.21,0,0,0-1.21.12,3.63,3.63,0,0,0,4.83,0,5.57,5.57,0,0,0-1.08-.1Zm8.38-6a3.24,3.24,0,0,0,1,2.26,3.56,3.56,0,0,0,2.42,1,5.9,5.9,0,0,0-.7-.8L19.92,7A5.14,5.14,0,0,0,19,6.27Z"/></g></g></g></svg>