<svg id="Capa_1" data-name="Capa 1" xmlns="http://www.w3.org/2000/svg" xmlns:xlink="http://www.w3.org/1999/xlink" viewBox="0 0 28.35 28.35"><defs><style>.cls-1{fill:none;}.cls-2{opacity:0.4;}.cls-3{clip-path:url(#clip-path);}</style><clipPath id="clip-path"><rect class="cls-1" x="3.71" y="1.67" width="20.93" height="25"/></clipPath></defs><g id="mustard" class="cls-2"><g id="Group_3" data-name="Group 3"><path id="Clip_2-16" data-name="Clip 2-16" class="cls-1" d="M3.71,1.67H24.64v25H3.71Z"/><g class="cls-3"><g id="Group_3-2" data-name="Group 3-2"><path id="Fill_1-6" data-name="Fill 1-6" d="M23.16,26.67h-18L3.79,15.5a10.13,10.13,0,0,1-.08-1.22A9.62,9.62,0,0,1,5.63,8.47V6.31H5.12V1.67H23.23V6.31h-.52V8.47a9.62,9.62,0,0,1,1.92,5.8,9.87,9.87,0,0,1-.07,1.22ZM6.3,23.06l.26,2.06H21.79l.26-2.06Zm-1-9.56h0a6.57,6.57,0,0,0,0,.78,7.23,7.23,0,0,0,.07,1l.78,6.21H22.24L23,15.31a7.23,7.23,0,0,0,.07-1,6.79,6.79,0,0,0,0-.78ZM7.18,6.31V9L7,9.21A8,8,0,0,0,5.59,12H22.76a8.21,8.21,0,0,0-1.43-2.75L21.16,9V6.31ZM6.67,3.22V4.76h15V3.22Z"/></g></g></g><path id="Fill_4-3" data-name="Fill 4-3" d="M11.23,17.3a1,1,0,1,0,1,1A1,1,0,0,0,11.23,17.3Z"/><path id="Fill_5" data-name="Fill 5" d="M16.81,17.3a1,1,0,1,0,1,1A1,1,0,0,0,16.81,17.3Z"/><path id="Fill_6-2" data-name="Fill 6-2" d="M14,15.65a1,1,0,1,0,1,1A1,1,0,0,0,14,15.65Z"/></g></svg>