<svg id="Capa_1" data-name="Capa 1" xmlns="http://www.w3.org/2000/svg" xmlns:xlink="http://www.w3.org/1999/xlink" viewBox="0 0 28.35 28.35"><defs><style>.cls-1{fill:none;}.cls-2{opacity:0.4;}.cls-3{clip-path:url(#clip-path);}</style><clipPath id="clip-path"><rect class="cls-1" x="3.85" y="4.2" width="20.65" height="19.95"/></clipPath></defs><g id="peanuts" class="cls-2"><path id="Clip_2-14" data-name="Clip 2-14" class="cls-1" d="M3.85,4.2H24.5v20H3.85Z"/><g class="cls-3"><g id="peanuts-2"><path id="Fill_1-4" data-name="Fill 1-4" d="M10.15,24.15a6.45,6.45,0,0,1-4.46-1.79,6,6,0,0,1-.2-8.42l.2-.2a8.31,8.31,0,0,1,3-1.86,5.31,5.31,0,0,0,1.93-1.13A5.1,5.1,0,0,0,11.8,8.89,7.9,7.9,0,0,1,13.73,6a6.46,6.46,0,0,1,8.92,0,5.94,5.94,0,0,1,.2,8.41l-.2.2a8.14,8.14,0,0,1-3,1.86,5.44,5.44,0,0,0-1.94,1.14,5,5,0,0,0-1.16,1.86h0a7.9,7.9,0,0,1-1.93,2.9A6.37,6.37,0,0,1,10.15,24.15ZM11.69,20a12.28,12.28,0,0,1-3.64,2.45,5.27,5.27,0,0,0,2.1.44,5.06,5.06,0,0,0,3.56-1.42c.17-.16.32-.32.47-.49a6.29,6.29,0,0,1-1.49-.46,8.59,8.59,0,0,1-1-.52ZM8.87,17.6A11.61,11.61,0,0,0,7,20.15c-.48.92-.39,1.3-.35,1.34a.25.25,0,0,0,.17,0A2.85,2.85,0,0,0,8,21.15a11.4,11.4,0,0,0,2.65-1.86,11.71,11.71,0,0,1-.92-.8C9.42,18.21,9.14,17.91,8.87,17.6ZM7.1,14.17l-.51.45a4.76,4.76,0,0,0-1,5.46,11.73,11.73,0,0,1,2.54-3.51,7.06,7.06,0,0,1-.54-1A5.87,5.87,0,0,1,7.1,14.17Zm8.11,1.88h0c-.44.47-.77.89-1.08,1.29h0a21.35,21.35,0,0,1-1.51,1.77,4.88,4.88,0,0,0,2.26.71H15c.15-.29.27-.56.38-.83a6.84,6.84,0,0,1,1-1.8l-1.18-1.14Zm-2.08-2a17.84,17.84,0,0,1-1.45,1.15h0a21.19,21.19,0,0,0-1.89,1.51,10.17,10.17,0,0,0,.83.9,7.85,7.85,0,0,0,.93.8A19.09,19.09,0,0,0,13.1,16.6h0c.37-.48.77-.95,1.19-1.4Zm6.16-1.38h0a23,23,0,0,1-1.83,1.46h0a16.28,16.28,0,0,0-1.34,1l1.18,1.13a7.39,7.39,0,0,1,1.86-1h0c.28-.11.56-.23.85-.37a4.43,4.43,0,0,0-.73-2.29ZM11.06,12a7.46,7.46,0,0,1-1.87,1h0c-.28.11-.56.23-.86.37a4.35,4.35,0,0,0,.74,2.29,21.14,21.14,0,0,1,1.82-1.46h0a16.28,16.28,0,0,0,1.34-1.05Zm5.74-2.1h0c-.55.58-1.08,1.19-1.57,1.82A14.77,14.77,0,0,1,14,13.17l1.18,1.14a15.9,15.9,0,0,1,1.45-1.15h0a22.7,22.7,0,0,0,1.88-1.52,8.85,8.85,0,0,0-.83-.9,10.28,10.28,0,0,0-.93-.8Zm6-1.66a11.83,11.83,0,0,1-2.53,3.5,7.51,7.51,0,0,1,.53,1,5.7,5.7,0,0,1,.49,1.44,6.57,6.57,0,0,0,.5-.44,4.77,4.77,0,0,0,1-5.46Zm-9.28.25h-.11a8.49,8.49,0,0,0-.38.82v0a7,7,0,0,1-1,1.8l1.17,1.14c.44-.47.75-.87,1.09-1.29a23.27,23.27,0,0,1,1.51-1.78,5,5,0,0,0-2.25-.71Zm8.09-1.7a2.85,2.85,0,0,0-1.2.37,11.67,11.67,0,0,0-2.66,1.86,11.86,11.86,0,0,1,.93.8,11.65,11.65,0,0,1,.83.89A11.25,11.25,0,0,0,21.4,8.18c.48-.92.39-1.3.35-1.33a.29.29,0,0,0-.18,0ZM18.19,5.43a5.09,5.09,0,0,0-3.56,1.43c-.16.15-.32.32-.46.48a6.35,6.35,0,0,1,1.48.46,8.59,8.59,0,0,1,1,.52,12.76,12.76,0,0,1,3.63-2.45A5.19,5.19,0,0,0,18.19,5.43Z"/></g></g></g></svg>