<svg id="Capa_1" data-name="Capa 1" xmlns="http://www.w3.org/2000/svg" xmlns:xlink="http://www.w3.org/1999/xlink" viewBox="0 0 28.35 28.35"><defs><style>.cls-1{fill:none;}.cls-2{opacity:0.4;}.cls-3{clip-path:url(#clip-path);}</style><clipPath id="clip-path"><rect class="cls-1" x="3.87" y="4.2" width="20.6" height="19.95"/></clipPath></defs><g id="sulfide" class="cls-2"><path id="Clip_2-12" data-name="Clip 2-12" class="cls-1" d="M3.87,4.2h20.6v20H3.87Z"/><g class="cls-3"><g id="sulfide-2"><path id="Fill_1-2" data-name="Fill 1-2" d="M20.23,24.15H8.11c-2.34,0-4.24-1.48-4.24-3.3a2.68,2.68,0,0,1,.4-1.4l5.27-8.69V4.2H18.8v6.56l5.27,8.69a2.68,2.68,0,0,1,.4,1.4C24.47,22.67,22.57,24.15,20.23,24.15ZM7,17.85H7L5.71,20a1.66,1.66,0,0,0-.25.87,2.42,2.42,0,0,0,2.65,2.06H20.23a2.42,2.42,0,0,0,2.66-2.06,1.67,1.67,0,0,0-.26-.87l-1.29-2.13ZM11.13,5.43V11L7.75,16.62H20.6L17.21,11V5.43Z"/></g></g></g></svg>