<svg id="Capa_1" data-name="Capa 1" xmlns="http://www.w3.org/2000/svg" xmlns:xlink="http://www.w3.org/1999/xlink" viewBox="0 0 28.35 28.35"><defs><style>.cls-1{fill:none;}.cls-2{clip-path:url(#clip-path);}.cls-3{fill:#999;}</style><clipPath id="clip-path"><rect class="cls-1" x="3.68" y="4.17" width="20.98" height="20"/></clipPath></defs><g id="gluten-3"><path id="Clip_2-13" data-name="Clip 2-13" class="cls-1" d="M3.68,4.17h21v20h-21Z"/><g class="cls-2"><g id="gluten-4"><path id="Fill_1-3" data-name="Fill 1-3" class="cls-3" d="M4.61,24.17h0l-.93-.89,4-3.78L7.13,15,18.53,4.17l.94.89L18,6.5l.33,2.85,3.81-3.63.93.89-3.81,3.63,3,.32,1.5-1.43.93.89L13.26,20.89,8.58,20.4l-4,3.77Zm7.12-6.78-2,1.86,3,.32,2-1.86-3-.32Zm-1.27-3.74-2,1.86.33,2.85,1.95-1.86Zm4.42.74-2,1.86,3,.31,1.95-1.86-3-.31Zm-1.26-3.75-2,1.86L12,15.36l1.95-1.86Zm4.41.75-2,1.86,3,.31,2-1.86-3-.31ZM16.77,7.64l-2,1.86.33,2.86,2-1.86Z"/></g></g></g></svg>