<svg id="Capa_1" data-name="Capa 1" xmlns="http://www.w3.org/2000/svg" xmlns:xlink="http://www.w3.org/1999/xlink" viewBox="0 0 28.35 28.35"><defs><style>.cls-1{fill:none;}.cls-2{clip-path:url(#clip-path);}.cls-3{fill:#999;}</style><clipPath id="clip-path"><rect class="cls-1" x="3.85" y="1.67" width="20.65" height="25"/></clipPath></defs><g id="egg"><g id="Group_3-3" data-name="Group 3-3"><path id="Clip_2-19" data-name="Clip 2-19" class="cls-1" d="M3.85,1.67H24.5v25H3.85Z"/><g class="cls-2"><g id="Group_3-4" data-name="Group 3-4"><path id="Fill_1-9" data-name="Fill 1-9" class="cls-3" d="M14.17,26.67a9.48,9.48,0,0,1-4-.9,10.52,10.52,0,0,1-3.28-2.41,11.23,11.23,0,0,1-3-7.68c0-7.46,4.83-14,10.33-14s10.33,6.55,10.33,14a11.23,11.23,0,0,1-3,7.68,10.52,10.52,0,0,1-3.28,2.41A9.48,9.48,0,0,1,14.17,26.67Zm0-23.45c-4.53,0-8.66,5.94-8.66,12.46,0,5.12,4,9.44,8.66,9.44s8.66-4.32,8.66-9.44c0-6.52-4.13-12.46-8.66-12.46Z"/></g></g></g><path id="Fill_4-4" data-name="Fill 4-4" class="cls-3" d="M11.09,20a6.4,6.4,0,0,1-1.68-4.32H7.74A7.93,7.93,0,0,0,9.82,21a6,6,0,0,0,4.35,2V21.52A4.33,4.33,0,0,1,11.09,20Z"/></g></svg>