<svg id="Capa_1" data-name="Capa 1" xmlns="http://www.w3.org/2000/svg" viewBox="0 0 28.35 28.35"><defs><style>.cls-1{opacity:0.4;isolation:isolate;}</style></defs><path id="celery" class="cls-1" d="M7.74,24.17a4.93,4.93,0,0,1-3.47-1.39,4.65,4.65,0,0,1-.15-6.58l.15-.14,10-9.71a4.68,4.68,0,0,1,.92-1.2,4.52,4.52,0,0,1,1.05-.79l.32-.19.32.19a5.42,5.42,0,0,1,.94.69,6.14,6.14,0,0,1,.43.45A6.73,6.73,0,0,1,20,5.28a7.13,7.13,0,0,1,1.67.2l.37.09.1.36a6.48,6.48,0,0,1,0,3.3,5.09,5.09,0,0,1,1.17,1.32l.2.31-.19.31a5,5,0,0,1-.82,1,5.56,5.56,0,0,1-1.25.89l-10,9.7A4.94,4.94,0,0,1,7.74,24.17ZM17,13.3,8,22a3.77,3.77,0,0,1-1.3.82,3.94,3.94,0,0,0,1,.14,3.63,3.63,0,0,0,2.57-1l8.54-8.26h0A5.27,5.27,0,0,1,17,13.3Zm-2.28-1.7h0L6,20a2.32,2.32,0,0,0-.71,1.77h.11a2.5,2.5,0,0,0,1.72-.69l8.7-8.43a5.68,5.68,0,0,1-.6-.5,4.78,4.78,0,0,1-.52-.58Zm-1-2.94L5.17,16.93a3.44,3.44,0,0,0-.92,3.49,3.49,3.49,0,0,1,.84-1.26l9-8.68a4.57,4.57,0,0,1-.35-1.82Zm2.86-3a3.32,3.32,0,0,0-.46.38A3.66,3.66,0,0,0,16,11.2l.11.11a3.94,3.94,0,0,0,5.47,0,3.39,3.39,0,0,0,.4-.45c-.1-.13-.21-.25-.32-.37A3.94,3.94,0,0,0,21,10l-.4-.27.16-.44A5.16,5.16,0,0,0,21,6.59a6.37,6.37,0,0,0-1-.08,5.6,5.6,0,0,0-1.77.28l-.46.15-.27-.38A4.53,4.53,0,0,0,17,5.94a3,3,0,0,0-.39-.31Z"/></svg>