<svg id="Capa_1" data-name="Capa 1" xmlns="http://www.w3.org/2000/svg" xmlns:xlink="http://www.w3.org/1999/xlink" viewBox="0 0 28.35 28.35"><defs><style>.cls-1{fill:none;}.cls-2{opacity:0.4;}.cls-3{clip-path:url(#clip-path);}</style><clipPath id="clip-path"><rect class="cls-1" x="3.68" y="4.21" width="20.98" height="19.93"/></clipPath></defs><g id="crustaceans" class="cls-2"><path id="Clip_2-22" data-name="Clip 2-22" class="cls-1" d="M3.68,4.21h21V24.14h-21Z"/><g class="cls-3"><g id="crustaceans-2"><path id="Fill_1-12" data-name="Fill 1-12" d="M9.1,24.14h0l-1-.78L10,21l-.69-1.06L6.4,21.31l-.56-1.14L8.79,18.8a5.42,5.42,0,0,1-.28-1.19H5.23V16.35H8.51a5.34,5.34,0,0,1,.28-1.18L5.47,13.62V12.47a3.15,3.15,0,0,1-.93-5l.1-.1L7,5.13a3.35,3.35,0,0,1,4.62,0,3.09,3.09,0,0,1,.09,4.38l-.09.1L9.26,11.88A3.32,3.32,0,0,1,7,12.81H6.77v0L9.35,14A5.79,5.79,0,0,1,19,14l2.59-1.21v0H21.4a3.28,3.28,0,0,1-2.31-.93L16.73,9.61a3.12,3.12,0,0,1-.09-4.39l.09-.09a3.35,3.35,0,0,1,4.62,0l2.36,2.28a3.09,3.09,0,0,1,.1,4.37l-.1.1a3.4,3.4,0,0,1-.83.59v1.15l-3.32,1.55a5.34,5.34,0,0,1,.28,1.18h3.27v1.26H19.84a6.06,6.06,0,0,1-.28,1.19l3,1.37L22,21.31l-3-1.38L18.3,21l2,2.37-1,.78-2-2.48h-6L9.1,24.14Zm5.07-11.42A4.34,4.34,0,0,0,9.77,17a4.11,4.11,0,0,0,.58,2.11l.85,1.31h5.95L18,19.09A4.11,4.11,0,0,0,18.58,17,4.33,4.33,0,0,0,14.17,12.72ZM19,5.46a2.07,2.07,0,0,0-.85.19l4.12,4-1.77,1.72A2,2,0,0,0,22.79,11a1.87,1.87,0,0,0,.06-2.64l-.06-.06L20.44,6A2,2,0,0,0,19,5.46Zm-9.74,0A2,2,0,0,0,7.91,6L5.56,8.3a1.87,1.87,0,0,0-.07,2.64l.07.06a2,2,0,0,0,2.24.37L6,9.65l4.13-4A2,2,0,0,0,9.3,5.46Zm8,1.08a1.87,1.87,0,0,0,.38,2.18l1.9,1.83.93-.9Zm-6.2,0h0L7.87,9.65l.93.9,1.9-1.84a1.86,1.86,0,0,0,.38-2.17Z"/></g></g></g></svg>