<svg id="Capa_1" data-name="Capa 1" xmlns="http://www.w3.org/2000/svg" xmlns:xlink="http://www.w3.org/1999/xlink" viewBox="0 0 28.35 28.35"><defs><style>.cls-1{fill:none;}.cls-2{opacity:0.4;}.cls-3{clip-path:url(#clip-path);}</style><clipPath id="clip-path"><rect class="cls-1" x="3.68" y="4.17" width="20.98" height="20"/></clipPath></defs><g id="mollusc" class="cls-2"><path id="Clip_2-20" data-name="Clip 2-20" class="cls-1" d="M3.68,4.17h21v20h-21Z"/><g class="cls-3"><g id="mollusc-2"><path id="Fill_1-10" data-name="Fill 1-10" d="M18.43,24.17H9.91V21L3.68,16.15v-.38a12.2,12.2,0,0,1,3.07-8.2,10,10,0,0,1,7.42-3.4,10,10,0,0,1,7.42,3.4,12.21,12.21,0,0,1,3.08,8.2v.38L18.43,21ZM11.21,21.3v1.44h5.92V21.3Zm10-12.06L17,19.87h.61l5.78-4.46A10.6,10.6,0,0,0,21.21,9.24ZM14.82,5.63V19.87h.74L20.23,8.14A8.65,8.65,0,0,0,14.82,5.63Zm-1.3,0h0a8.72,8.72,0,0,0-5.41,2.5l4.68,11.74h.73V5.63ZM7.13,9.24h0A10.71,10.71,0,0,0,5,15.4l5.79,4.47h.6Z"/></g></g></g></svg>