<svg id="Capa_1" data-name="Capa 1" xmlns="http://www.w3.org/2000/svg" viewBox="0 0 28.35 28.35"><defs><style>.cls-1{fill:#999;}</style></defs><path id="almond" class="cls-1" d="M11.91,24.18h0a8.28,8.28,0,0,1-5.7-2.27h0a7.77,7.77,0,0,1-2.34-5.7A9.14,9.14,0,0,1,7,9.77a22.11,22.11,0,0,1,6.29-4.13,16.08,16.08,0,0,1,6.18-1.46,5.27,5.27,0,0,1,3.75,1.21l0,0,0,0c1.35,1.32,1.6,3.86.7,7a20.85,20.85,0,0,1-5.24,8.7A9.65,9.65,0,0,1,11.91,24.18ZM23.07,7.7h0a21.85,21.85,0,0,1-2,3.18,58.74,58.74,0,0,1-5.95,6.76,22.65,22.65,0,0,1-5.27,4,8.1,8.1,0,0,1-1.18.48,7,7,0,0,0,3.25.8,8.35,8.35,0,0,0,5.9-2.67,19.7,19.7,0,0,0,4.94-8.17,9.13,9.13,0,0,0,.33-4.4Zm-.84-1.32a13.09,13.09,0,0,0-3.78,2.05,56.79,56.79,0,0,0-6.95,5.72A19.92,19.92,0,0,0,7.58,19C6.92,20.2,7,20.85,7.1,21a.73.73,0,0,0,.38.08,4.26,4.26,0,0,0,1.77-.55,20.49,20.49,0,0,0,4.95-3.79A55.51,55.51,0,0,0,20.1,10,12.06,12.06,0,0,0,22.23,6.38Zm-2.77-1c-3.54,0-8.3,2.15-11.57,5.24a7.92,7.92,0,0,0-2.76,5.57A6.34,6.34,0,0,0,6,19.52a6.46,6.46,0,0,1,.5-1.14,22,22,0,0,1,4.15-5.11,59.14,59.14,0,0,1,7-5.76,22.25,22.25,0,0,1,3.29-1.95,6.08,6.08,0,0,0-1.41-.14Z"/></svg>