<svg id="Capa_1" data-name="Capa 1" xmlns="http://www.w3.org/2000/svg" viewBox="0 0 28.35 28.35"><defs><style>.cls-1{fill:#d0131f;}.cls-2{fill:none;stroke:#d0131f;stroke-linecap:round;stroke-miterlimit:10;stroke-width:0.7px;}</style></defs><g id="spicy"><g id="Group_4_Copy" data-name="Group 4 Copy"><g id="Triangle"><path class="cls-1" d="M17.85,11h.06a.77.77,0,0,1,.62.34.79.79,0,0,1,.1.7l-1.66,5-6.26,1.27,4.84-3.18.11-.08,0-.13.68-2.8A1.5,1.5,0,0,1,17.85,11Z"/><path class="cls-1" d="M12.42,17.66l4.28-.87,1.6-4.85a.43.43,0,0,0-.06-.39.4.4,0,0,0-.35-.19h0a1.15,1.15,0,0,0-1.13.89L16,15.05l-.07.27-.23.15-3.32,2.19M9.41,19a.09.09,0,0,1-.05-.16l6-3.93L16,12.08a1.85,1.85,0,0,1,1.81-1.42h.07a1.14,1.14,0,0,1,1,1.5l-1.72,5.23L9.42,19Z"/></g><path id="Path_14" data-name="Path 14" class="cls-2" d="M18.06,11.05a6.87,6.87,0,0,0,.14-1,2.23,2.23,0,0,0-.14-.68"/></g></g></svg>