<svg id="Capa_1" data-name="Capa 1" xmlns="http://www.w3.org/2000/svg" viewBox="0 0 28.35 28.35"><defs><style>.cls-1{fill:none;stroke:#999;stroke-linecap:round;stroke-miterlimit:10;}</style></defs><g id="Vegan"><g id="Group_2_Copy" data-name="Group 2 Copy"><path id="Path_3-2" data-name="Path 3-2" class="cls-1" d="M4.24,20.63s-.31-.43,1.42-3.9a19.22,19.22,0,0,1,5.53-6.1"/><path id="Path_4-2" data-name="Path 4-2" class="cls-1" d="M5,18.23s-1.86-5.94.72-8.36L16.91,6.72a.2.2,0,0,1,.24.14.2.2,0,0,1,0,.15L15.67,9.87c-.33,1.38-.15,2.72-.34,3.86a5.27,5.27,0,0,1-1.13,2.44c-2,2.46-6.73,2.46-6.73,2.46"/></g><g id="Group_2_Copy_2" data-name="Group 2 Copy 2"><path id="Path_3-3" data-name="Path 3-3" class="cls-1" d="M15.23,21.63s-.22-.3,1-2.73a13.55,13.55,0,0,1,4-4.27"/><path id="Path_4-3" data-name="Path 4-3" class="cls-1" d="M15.73,20.33s-1.28-4.45.5-6.27l7.64-2.32a.21.21,0,0,1,.25.13.26.26,0,0,1,0,.15l-1,2c-.23,1-.11,2-.24,2.9a4.14,4.14,0,0,1-.78,1.83c-1.4,1.84-4.66,1.84-4.66,1.84"/></g></g></svg>